<svg width="72" height="46" viewBox="0 0 72 46" fill="none" xmlns="http://www.w3.org/2000/svg">
  <path opacity="0.2" d="M36 51.8C43.6382 51.8 50.9636 48.7657 56.3647 43.3647C61.7657 37.9636 64.8 30.6382 64.8 23C64.8 15.3618 61.7657 8.03637 56.3647 2.63532C50.9636 -2.76572 43.6382 -5.8 36 -5.8C28.3618 -5.8 21.0364 -2.76572 15.6353 2.63532C10.2343 8.03637 7.2 15.3618 7.2 23C7.2 30.6382 10.2343 37.9636 15.6353 43.3647C21.0364 48.7657 28.3618 51.8 36 51.8ZM36 -13C40.7276 -13 45.4089 -12.0688 49.7766 -10.2597C54.1443 -8.45049 58.1129 -5.79875 61.4558 -2.45584C64.7988 0.887065 67.4505 4.85567 69.2597 9.22339C71.0688 13.5911 72 18.2724 72 23C72 32.5478 68.2072 41.7045 61.4558 48.4558C54.7045 55.2072 45.5478 59 36 59C16.092 59 0 42.8 0 23C0 13.4522 3.79285 4.29547 10.5442 -2.45584C17.2955 -9.20715 26.4522 -13 36 -13ZM37.8 5V23.9L54 33.512L51.3 37.94L32.4 26.6V5H37.8Z" fill="white"/>
</svg>
