<svg width="38" height="38" viewBox="0 0 38 38" fill="none" xmlns="http://www.w3.org/2000/svg">
  <path d="M32.2616 32.2123C39.4895 24.9936 39.4895 13.2896 32.2616 6.07087C25.0338 -1.14789 13.3151 -1.1479 6.08721 6.07087C-1.14066 13.2896 -1.14065 24.9936 6.08721 32.2123C13.3151 39.4311 25.0338 39.4311 32.2616 32.2123Z" fill="#FF0000"/>
  <path d="M20 20.1411H18V14.1411H20V20.1411ZM20 24.1411H18V22.1411H20V24.1411ZM19 9.14111C17.6868 9.14111 16.3864 9.39977 15.1732 9.90232C13.9599 10.4049 12.8575 11.1415 11.9289 12.07C10.0536 13.9454 9 16.4889 9 19.1411C9 21.7933 10.0536 24.3368 11.9289 26.2122C12.8575 27.1408 13.9599 27.8774 15.1732 28.3799C16.3864 28.8825 17.6868 29.1411 19 29.1411C21.6522 29.1411 24.1957 28.0875 26.0711 26.2122C27.9464 24.3368 29 21.7933 29 19.1411C29 17.8279 28.7413 16.5275 28.2388 15.3143C27.7362 14.101 26.9997 12.9986 26.0711 12.07C25.1425 11.1415 24.0401 10.4049 22.8268 9.90232C21.6136 9.39977 20.3132 9.14111 19 9.14111Z" fill="white"/>
</svg>
