<svg width="42" height="42" viewBox="0 0 42 42" fill="none" xmlns="http://www.w3.org/2000/svg">
  <rect width="42" height="42" rx="21" fill="#EA4545"/>
  <path d="M13.2471 15.1553L26.4598 28.368C26.9866 28.8948 27.8413 28.8948 28.3681 28.368C28.8949 27.8412 28.8949 26.9865 28.3681 26.4598L15.1554 13.247C14.6286 12.7202 13.7739 12.7202 13.2471 13.247C12.7203 13.7738 12.7203 14.6285 13.2471 15.1553Z" fill="white" stroke="white"/>
  <path d="M15.1553 28.3682L28.368 15.1555C28.8948 14.6287 28.8948 13.774 28.368 13.2472C27.8412 12.7204 26.9865 12.7204 26.4598 13.2472L13.247 26.4599C12.7202 26.9867 12.7202 27.8414 13.247 28.3682C13.7738 28.895 14.6285 28.895 15.1553 28.3682Z" fill="white" stroke="white"/>
</svg>
