<svg width="14" height="20" viewBox="0 0 14 20" fill="none" xmlns="http://www.w3.org/2000/svg">
  <path d="M4.52513 9.47487C5.1815 10.1313 6.07174 10.5 7 10.5C7.45963 10.5 7.91475 10.4095 8.33939 10.2336C8.76403 10.0577 9.14987 9.79988 9.47487 9.47487C9.79988 9.14987 10.0577 8.76403 10.2336 8.33939C10.4095 7.91475 10.5 7.45963 10.5 7C10.5 6.07174 10.1313 5.1815 9.47487 4.52513C8.8185 3.86875 7.92826 3.5 7 3.5C6.07174 3.5 5.1815 3.86875 4.52513 4.52513C3.86875 5.1815 3.5 6.07174 3.5 7C3.5 7.92826 3.86875 8.8185 4.52513 9.47487ZM7 18.4634C6.9017 18.345 6.79555 18.2159 6.68271 18.0769C6.03934 17.2841 5.18316 16.1755 4.32896 14.9094C3.47285 13.6406 2.63106 12.2317 2.00635 10.8372C1.37577 9.4297 1 8.11016 1 7C1 5.4087 1.63214 3.88258 2.75736 2.75736C3.88258 1.63214 5.4087 1 7 1C8.5913 1 10.1174 1.63214 11.2426 2.75736C12.3679 3.88258 13 5.4087 13 7C13 8.11016 12.6242 9.4297 11.9936 10.8372C11.3689 12.2317 10.5272 13.6406 9.67104 14.9094C8.81684 16.1755 7.96066 17.2841 7.31729 18.0769C7.20445 18.2159 7.0983 18.345 7 18.4634Z" stroke="#DDE2E7" stroke-width="2"/>
</svg>
