<svg width="24" height="29" viewBox="0 0 24 29" fill="none" xmlns="http://www.w3.org/2000/svg">
  <path d="M18 21.375H5.625V12.4375C5.625 9 8.375 6.25 11.8125 6.25C15.25 6.25 18 9 18 12.4375V21.375ZM20.75 20V12.4375C20.75 8.21625 17.8075 4.6825 13.875 3.7475V2.8125C13.875 1.67125 12.9537 0.75 11.8125 0.75C10.6713 0.75 9.75 1.67125 9.75 2.8125V3.7475C5.80375 4.6825 2.875 8.21625 2.875 12.4375V20L0.125 22.75V24.125H23.5V22.75L20.75 20ZM11.8125 28.25C13.325 28.25 14.5625 27.0125 14.5625 25.5H9.0625C9.0625 27.0125 10.3 28.25 11.8125 28.25Z" fill="white"/>
</svg>
