<svg width="40" height="40" viewBox="0 0 40 40" fill="none" xmlns="http://www.w3.org/2000/svg">
  <path d="M19.9999 39.1667C30.5854 39.1667 39.1666 30.5855 39.1666 20C39.1666 9.41458 30.5854 0.833374 19.9999 0.833374C9.41446 0.833374 0.833252 9.41458 0.833252 20C0.833252 30.5855 9.41446 39.1667 19.9999 39.1667Z" fill="#FFD364"/>
  <path d="M19.9999 3.33337C30.1666 3.33337 38.3333 10.4167 38.3333 19.1667H39.1666C38.7499 9.00004 30.3333 0.833374 19.9999 0.833374C9.66659 0.833374 1.24992 9.00004 0.833252 19.1667H1.66659C1.66659 10.4167 9.83325 3.33337 19.9999 3.33337Z" fill="#EFB650"/>
  <path d="M38.3333 19.1667C38.3333 27.9167 30.1666 35.0001 19.9999 35.0001C9.83325 35.0001 1.66659 27.9167 1.66659 19.1667H0.833252C0.833252 19.4167 0.833252 19.7501 0.833252 20.0001C0.833252 30.5834 9.41659 39.1667 19.9999 39.1667C30.5833 39.1667 39.1666 30.5834 39.1666 20.0001C39.1666 19.7501 39.1666 19.4167 39.1666 19.1667H38.3333Z" fill="#EEB552"/>
  <path d="M31.0833 6.00008C31.3333 6.41675 31.3333 6.91675 30.9166 7.08341C30.5833 7.25008 30 7.00008 29.75 6.58341C29.5 6.16675 29.5 5.66675 29.9166 5.50008C30.25 5.33341 30.8333 5.58341 31.0833 6.00008Z" fill="#F6FAFD"/>
  <path d="M25.4999 3.1667C25.6666 3.4167 25.5833 3.58336 25.4166 3.6667C25.2499 3.75003 24.9999 3.58336 24.8333 3.4167C24.6666 3.1667 24.7499 3.00003 24.9166 2.9167C25.1666 2.83336 25.4166 3.00003 25.4999 3.1667Z" fill="#F6FAFD"/>
  <path d="M29.2499 4.08337C29.8332 4.91671 29.6665 5.91671 28.9165 6.16671C28.1665 6.50004 27.1665 6.00004 26.5832 5.08337C25.9999 4.25004 26.1665 3.25004 26.9165 3.00004C27.6665 2.75004 28.6665 3.16671 29.2499 4.08337Z" fill="#F6FAFD"/>
  <path d="M30 20C32.7614 20 35 17.7614 35 15C35 12.2386 32.7614 10 30 10C27.2386 10 25 12.2386 25 15C25 17.7614 27.2386 20 30 20Z" fill="url(#paint0_radial)"/>
  <path d="M10 20C12.7614 20 15 17.7614 15 15C15 12.2386 12.7614 10 10 10C7.23858 10 5 12.2386 5 15C5 17.7614 7.23858 20 10 20Z" fill="url(#paint1_radial)"/>
  <path d="M19.9999 23.3333C16.3333 23.3333 13.3333 20.75 13.3333 17.5H14.9999C14.9999 19.8333 17.2499 21.6667 19.9999 21.6667C22.7499 21.6667 24.9999 19.8333 24.9999 17.5H26.6666C26.6666 20.75 23.6666 23.3333 19.9999 23.3333Z" fill="#47476B"/>
  <path d="M31.6666 10.8334H29.9999C29.9999 9.41675 28.9166 8.33341 27.4999 8.33341C26.0833 8.33341 24.9999 9.41675 24.9999 10.8334H23.3333C23.3333 8.50008 25.1666 6.66675 27.4999 6.66675C29.8333 6.66675 31.6666 8.50008 31.6666 10.8334Z" fill="#47476B"/>
  <path d="M16.6666 10.8334H14.9999C14.9999 9.41675 13.9166 8.33341 12.4999 8.33341C11.0833 8.33341 9.99992 9.41675 9.99992 10.8334H8.33325C8.33325 8.50008 10.1666 6.66675 12.4999 6.66675C14.8333 6.66675 16.6666 8.50008 16.6666 10.8334Z" fill="#47476B"/>
  <path d="M25.8332 17.5C25.8332 20.25 23.2498 22.5 19.9998 22.5C16.7498 22.5 14.1665 20.25 14.1665 17.5" stroke="#47476B" stroke-width="2" stroke-miterlimit="10" stroke-linejoin="round"/>
  <path d="M30.8332 10.8333C30.8332 9 29.3332 7.5 27.4998 7.5C25.6665 7.5 24.1665 9 24.1665 10.8333" stroke="#47476B" stroke-width="2" stroke-miterlimit="10" stroke-linejoin="round"/>
  <path d="M15.8332 10.8333C15.8332 9 14.3332 7.5 12.4998 7.5C10.6665 7.5 9.1665 9 9.1665 10.8333" stroke="#47476B" stroke-width="2" stroke-miterlimit="10" stroke-linejoin="round"/>
  <defs>
    <radialGradient id="paint0_radial" cx="0" cy="0" r="1" gradientUnits="userSpaceOnUse" gradientTransform="translate(30 15) scale(5)">
      <stop stop-color="#FF568D"/>
      <stop offset="0.4539" stop-color="#FF9678"/>
      <stop offset="0.817" stop-color="#FFC26A"/>
      <stop offset="1" stop-color="#FFD364"/>
    </radialGradient>
    <radialGradient id="paint1_radial" cx="0" cy="0" r="1" gradientUnits="userSpaceOnUse" gradientTransform="translate(10 15) scale(5)">
      <stop stop-color="#FF568D"/>
      <stop offset="0.4539" stop-color="#FF9678"/>
      <stop offset="0.817" stop-color="#FFC26A"/>
      <stop offset="1" stop-color="#FFD364"/>
    </radialGradient>
  </defs>
</svg>
