<svg width="253" height="183" viewBox="0 0 253 183" fill="none" xmlns="http://www.w3.org/2000/svg">
  <path d="M208.148 131.471V40.7094C208.148 38.3539 206.23 36.4375 203.871 36.4375H56.2978C53.9393 36.4375 52.0205 38.3539 52.0205 40.7094V131.471H208.148Z" fill="#69AEEB"/>
  <path d="M200.886 43.7568H59.269V123.406H200.886V43.7568Z" fill="#EAF4FE"/>
  <path d="M51.7139 131.644V144.765C51.7139 147.294 53.7659 149.343 56.2976 149.343H203.871C206.403 149.343 208.455 147.294 208.455 144.765V131.644H51.7139Z" fill="#C5E1F9"/>
  <path d="M157.087 168.667C157.087 168.667 155.955 168.108 154.649 167.616C153.25 167.097 151.584 166.445 150.598 165.966C148.866 165.14 148.719 164.595 148.08 161.774C147.373 158.686 146.721 152.178 146.454 149.344H113.741C113.475 152.178 112.809 158.699 112.102 161.774C111.45 164.595 111.316 165.14 109.584 165.966C108.611 166.431 106.959 167.083 105.573 167.602C104.254 168.108 103.161 168.481 103.161 168.481C103.161 168.481 102.109 169.066 103.801 169.146H156.368C157.953 169.186 157.087 168.667 157.087 168.667Z" fill="#C5E1F9"/>
  <path d="M146.774 152.764C146.627 151.419 146.507 150.208 146.427 149.33H113.741C113.661 150.195 113.541 151.406 113.395 152.764H146.774Z" fill="#9AC7F7"/>
  <path d="M125.534 47.1243C125.534 46.5521 126.014 46.0996 126.6 46.0996L192.479 46.3525C193.065 46.3525 193.531 46.8182 193.531 47.3905L193.131 148.585C193.131 149.158 192.652 149.61 192.065 149.61L126.174 149.357C125.587 149.357 125.121 148.892 125.121 148.319L125.534 47.1243Z" fill="#0450CF"/>
  <path d="M122.962 46.4189C122.962 45.8466 123.535 45.3809 124.242 45.3809L129.772 45.4075C130.478 45.4075 131.051 45.8733 131.051 46.4588L130.638 149.025C130.638 149.597 130.065 150.063 129.358 150.063L123.829 150.036C123.122 150.036 122.549 149.557 122.563 148.985L122.962 46.4189Z" fill="#0450CF"/>
  <path d="M124.122 48.4283C124.122 48.0025 123.655 47.4435 123.069 47.1774L70.3557 27.681C69.7694 27.4281 66.9578 27.681 66.9578 28.2532L66.4248 161.707C66.4248 162.293 69.2364 162.585 69.8227 162.346L122.683 148.332C123.269 148.106 123.735 147.56 123.735 147.135L124.122 48.4283Z" fill="#0450CF"/>
  <path d="M126.467 48.4286C126.467 48.0027 126.001 47.4438 125.414 47.1776L70.3557 27.6812C69.7694 27.4284 69.303 27.6812 69.303 28.2668L68.77 161.721C68.77 162.306 69.2364 162.586 69.8227 162.359L125.014 148.359C125.601 148.133 126.067 147.587 126.08 147.162L126.467 48.4286Z" fill="#0561FC"/>
  <path d="M71.4083 30.0234L128.572 50.2385L128.186 146.456L70.8887 159.618L71.4083 30.0234Z" fill="#AEC4DB"/>
  <path d="M77.4977 30.0498L128.585 47.7762L128.186 147.161L76.978 159.644L77.4977 30.0498Z" fill="#BCD0E2"/>
  <path d="M83.587 30.0762L128.585 47.776L128.186 147.161L83.0674 159.671L83.587 30.0762Z" fill="#CEE0F0"/>
  <path d="M88.5043 32.1523L127.053 49.0004L126.68 143.222L88.0112 155L88.5043 32.1523Z" fill="#AEC4DB"/>
  <path d="M89.9166 30.103L128.586 47.7762L128.186 147.161L89.397 159.697L89.9166 30.103Z" fill="#E4EEF3"/>
  <path d="M128.519 47.6299L190.72 47.8694L190.32 147.374L128.119 147.135L128.519 47.6299Z" fill="white"/>
  <path d="M165.136 63.2402H138.366V64.3714H165.136V63.2402Z" fill="#C5E1F9"/>
  <path d="M173.677 66.6475H138.366V68.3509H173.677V66.6475Z" fill="#C5E1F9"/>
  <path d="M177.088 73.4741H138.366V75.1776H177.088V73.4741Z" fill="#C5E1F9"/>
  <path d="M177.088 77.4531H138.366V79.1566H177.088V77.4531Z" fill="#C5E1F9"/>
  <path d="M177.088 80.8735H138.366V82.0047H177.088V80.8735Z" fill="#C5E1F9"/>
  <path d="M177.088 84.2803H138.366V85.9837H177.088V84.2803Z" fill="#C5E1F9"/>
  <path d="M167.401 91.6797H138.366V92.8109H167.401V91.6797Z" fill="#C5E1F9"/>
  <path d="M177.088 98.5068H138.366V100.21H177.088V98.5068Z" fill="#C5E1F9"/>
  <path d="M177.088 102.486H138.366V103.058H177.088V102.486Z" fill="#C5E1F9"/>
  <path d="M177.088 105.321H138.366V107.024H177.088V105.321Z" fill="#C5E1F9"/>
  <path d="M177.088 109.3H138.366V111.003H177.088V109.3Z" fill="#C5E1F9"/>
  <path d="M177.088 112.72H138.366V113.851H177.088V112.72Z" fill="#C5E1F9"/>
  <path d="M177.088 116.127H138.366V117.83H177.088V116.127Z" fill="#C5E1F9"/>
  <path d="M177.088 119.547H138.366V121.25H177.088V119.547Z" fill="#C5E1F9"/>
  <path d="M177.088 123.526H138.366V124.657H177.088V123.526Z" fill="#C5E1F9"/>
  <path d="M177.088 126.933H138.366V128.064H177.088V126.933Z" fill="#C5E1F9"/>
  <path d="M177.088 130.353H138.366V132.056H177.088V130.353Z" fill="#C5E1F9"/>
  <path d="M177.088 134.333H138.366V134.905H177.088V134.333Z" fill="#C5E1F9"/>
  <path d="M123.989 64.5709L96.8857 54.5632V52.5537L123.989 62.974V64.5709Z" fill="#C5E1F9"/>
  <path d="M123.989 68.284L96.8857 59.2478V57.2383L123.989 66.6871V68.284Z" fill="#C5E1F9"/>
  <path d="M123.989 75.1773L96.8857 67.9377V65.9282L123.989 73.5937V75.1773Z" fill="#C5E1F9"/>
  <path d="M123.989 78.8904L96.8857 72.6223V70.6128L123.989 77.3068V78.8904Z" fill="#C5E1F9"/>
  <path d="M123.989 82.0845L96.8857 76.6415V75.2974L123.989 81.0199V82.0845Z" fill="#C5E1F9"/>
  <path d="M123.989 85.7975L96.8857 81.3126V79.3164L123.989 84.2005V85.7975Z" fill="#C5E1F9"/>
  <path d="M123.989 92.691L96.8857 90.016V88.6719L123.989 91.6263V92.691Z" fill="#C5E1F9"/>
  <path d="M123.989 96.4039L96.8857 94.6871V92.6909L123.989 94.8202V96.4039Z" fill="#C5E1F9"/>
  <path d="M123.989 89.5102L96.8857 85.9968V83.9873L123.989 87.9132V89.5102Z" fill="#C5E1F9"/>
  <path d="M123.989 71.4648L96.8857 63.2537V61.9229L123.989 70.4001V71.4648Z" fill="#C5E1F9"/>
  <path d="M123.989 100.117L96.8857 99.3717V97.3755L123.989 98.5333V100.117Z" fill="#C5E1F9"/>
  <path d="M123.989 103.311L96.8857 103.391V102.047L123.989 102.246V103.311Z" fill="#C5E1F9"/>
  <path d="M118.672 107.224L96.8857 108.075V106.066L118.672 105.56V107.224Z" fill="#C5E1F9"/>
  <path d="M123.989 113.918L96.8857 116.765V115.421L123.989 112.866V113.918Z" fill="#C5E1F9"/>
  <path d="M123.989 117.631L96.8857 121.45V119.44L123.989 116.047V117.631Z" fill="#C5E1F9"/>
  <path d="M123.989 121.357L96.8857 126.134V124.125L123.989 119.76V121.357Z" fill="#C5E1F9"/>
  <path d="M123.989 124.537L96.8857 130.14V128.809L123.989 123.473V124.537Z" fill="#C5E1F9"/>
  <path d="M123.989 128.25L96.8857 134.825V132.815L123.989 126.653V128.25Z" fill="#C5E1F9"/>
  <path d="M123.989 131.963L96.8857 139.509V137.499L123.989 130.366V131.963Z" fill="#C5E1F9"/>
  <path d="M116.02 137.606L96.8857 143.515V142.184L116.02 136.461V137.606Z" fill="#C5E1F9"/>
</svg>
